<?xml version="1.0" standalone="no"?>
<!DOCTYPE svg PUBLIC "-//W3C//DTD SVG 20010904//EN"
 "http://www.w3.org/TR/2001/REC-SVG-20010904/DTD/svg10.dtd">
<svg version="1.0" xmlns="http://www.w3.org/2000/svg"
 width="3928.000000pt" height="1484.000000pt" viewBox="0 0 3928.000000 1484.000000"
 preserveAspectRatio="xMidYMid meet">

<g transform="translate(0.000000,1484.000000) scale(0.100000,-0.100000)"
fill="#000000" stroke="none">
<path d="M0 7420 l0 -7420 19635 0 19635 0 0 7420 0 7420 -19635 0 -19635 0 0
-7420z m7920 2275 l0 -505 -1060 0 -1060 0 0 -635 0 -635 915 0 915 0 0 -500
0 -500 -915 0 -915 0 0 -1140 0 -1140 -580 0 -580 0 0 2780 0 2780 1640 0
1640 0 0 -505z m2140 -2275 l0 -2780 -580 0 -580 0 0 2780 0 2780 580 0 580 0
0 -2780z m1742 1789 c535 -546 974 -995 976 -999 1 -4 -50 -10 -115 -13 -270
-15 -416 -92 -616 -325 -15 -18 -33 -32 -41 -32 -7 0 -46 37 -87 83 -119 134
-282 297 -296 297 -11 0 -13 -253 -13 -1398 l0 -1397 -222 -220 c-123 -121
-301 -296 -395 -390 l-173 -170 0 2778 c0 1527 2 2777 4 2777 2 0 442 -446
978 -991z m2702 -4568 c-3 -3 -44 35 -92 84 -48 50 -423 432 -832 850 -1015
1036 -967 985 -951 994 7 5 38 11 69 15 145 17 302 79 403 158 57 45 136 127
182 191 16 20 35 37 44 37 8 0 95 -82 192 -182 113 -116 181 -179 189 -174 9
5 12 328 12 1409 l0 1402 392 386 393 386 3 -2775 c1 -1526 -1 -2778 -4 -2781z
m4596 5054 l0 -505 -660 0 -660 0 0 -2275 0 -2275 -575 0 -575 0 0 2275 0
2275 -665 0 -665 0 0 505 0 505 1900 0 1900 0 0 -505z m3178 494 c625 -67
1091 -357 1318 -819 244 -495 238 -1203 -14 -1595 -194 -301 -468 -490 -865
-599 l-117 -32 818 -1225 c450 -673 827 -1236 836 -1251 l18 -28 -683 0 -684
0 -722 1223 -721 1222 -166 3 -166 2 0 -1225 0 -1225 -580 0 -580 0 0 2780 0
2780 1105 0 c707 0 1141 -4 1203 -11z m6072 -494 l0 -505 -1028 0 -1029 0 -6
-472 c-4 -260 -7 -546 -7 -635 l0 -163 915 0 915 0 0 -500 0 -500 -910 0 -910
0 0 -630 0 -630 1030 0 1030 0 0 -510 0 -510 -1615 0 -1615 0 0 2780 0 2780
1615 0 1615 0 0 -505z m2734 -397 c375 -493 686 -902 691 -907 7 -7 236 287
700 899 l690 909 704 0 c561 1 701 -2 694 -11 -6 -7 -388 -490 -849 -1073
-461 -583 -907 -1148 -992 -1255 -85 -107 -177 -223 -203 -256 l-49 -62 537
-718 c868 -1164 1609 -2158 1617 -2172 6 -9 -142 -12 -727 -12 l-734 0 -687
980 c-379 539 -691 980 -695 980 -3 -1 -314 -441 -691 -980 l-685 -979 -732 0
c-403 -1 -733 1 -733 4 0 3 355 482 789 1063 434 581 919 1232 1079 1446 l290
389 -266 336 c-147 185 -615 777 -1042 1316 -427 540 -780 986 -784 993 -6 10
143 12 695 10 l702 -3 681 -897z m-18326 -1453 c319 -75 462 -435 284 -711
-87 -134 -230 -208 -397 -206 -183 2 -331 98 -413 270 -66 138 -55 313 28 440
111 172 305 252 498 207z"/>
<path d="M21130 8581 l0 -661 418 0 c443 0 536 7 677 50 287 89 444 301 445
602 1 336 -165 541 -515 635 l-100 27 -462 4 -463 3 0 -660z"/>
</g>
</svg>
